<mxfile host="app.diagrams.net" modified="2023-07-24T19:50:48.483Z" agent="Mozilla/5.0 (Windows NT 10.0; Win64; x64) AppleWebKit/537.36 (KHTML, like Gecko) Chrome/114.0.0.0 Safari/537.36" etag="pis-PcbGJQQBgAlBuod4" version="21.6.5" type="device" pages="4">
  <diagram name="Página-1" id="5mKF2Q-sigWQypGG8Vnm">
    <mxGraphModel dx="1050" dy="581" grid="1" gridSize="10" guides="1" tooltips="1" connect="1" arrows="1" fold="1" page="1" pageScale="1" pageWidth="827" pageHeight="1169" math="0" shadow="0">
      <root>
        <mxCell id="0" />
        <mxCell id="1" parent="0" />
        <mxCell id="lNjub-nvCE7GVWdZc6g1-15" style="edgeStyle=orthogonalEdgeStyle;rounded=0;orthogonalLoop=1;jettySize=auto;html=1;entryX=0.5;entryY=0;entryDx=0;entryDy=0;" edge="1" parent="1" source="lNjub-nvCE7GVWdZc6g1-2" target="lNjub-nvCE7GVWdZc6g1-12">
          <mxGeometry relative="1" as="geometry" />
        </mxCell>
        <mxCell id="lNjub-nvCE7GVWdZc6g1-16" style="edgeStyle=orthogonalEdgeStyle;rounded=0;orthogonalLoop=1;jettySize=auto;html=1;entryX=0;entryY=0.5;entryDx=0;entryDy=0;" edge="1" parent="1" source="lNjub-nvCE7GVWdZc6g1-2" target="lNjub-nvCE7GVWdZc6g1-9">
          <mxGeometry relative="1" as="geometry" />
        </mxCell>
        <mxCell id="lNjub-nvCE7GVWdZc6g1-17" style="edgeStyle=orthogonalEdgeStyle;rounded=0;orthogonalLoop=1;jettySize=auto;html=1;entryX=0;entryY=0.5;entryDx=0;entryDy=0;" edge="1" parent="1" source="lNjub-nvCE7GVWdZc6g1-2" target="lNjub-nvCE7GVWdZc6g1-10">
          <mxGeometry relative="1" as="geometry" />
        </mxCell>
        <mxCell id="lNjub-nvCE7GVWdZc6g1-2" value="Filme" style="rounded=0;whiteSpace=wrap;html=1;" vertex="1" parent="1">
          <mxGeometry x="320" y="150" width="120" height="60" as="geometry" />
        </mxCell>
        <mxCell id="lNjub-nvCE7GVWdZc6g1-7" style="edgeStyle=orthogonalEdgeStyle;rounded=0;orthogonalLoop=1;jettySize=auto;html=1;entryX=0.5;entryY=0;entryDx=0;entryDy=0;" edge="1" parent="1" source="lNjub-nvCE7GVWdZc6g1-3" target="lNjub-nvCE7GVWdZc6g1-6">
          <mxGeometry relative="1" as="geometry" />
        </mxCell>
        <mxCell id="lNjub-nvCE7GVWdZc6g1-3" value="Catalogo" style="rounded=0;whiteSpace=wrap;html=1;" vertex="1" parent="1">
          <mxGeometry x="90" y="50" width="120" height="60" as="geometry" />
        </mxCell>
        <mxCell id="lNjub-nvCE7GVWdZc6g1-8" style="edgeStyle=orthogonalEdgeStyle;rounded=0;orthogonalLoop=1;jettySize=auto;html=1;entryX=0;entryY=0.5;entryDx=0;entryDy=0;" edge="1" parent="1" source="lNjub-nvCE7GVWdZc6g1-6" target="lNjub-nvCE7GVWdZc6g1-2">
          <mxGeometry relative="1" as="geometry" />
        </mxCell>
        <mxCell id="lNjub-nvCE7GVWdZc6g1-6" value="possui" style="rhombus;whiteSpace=wrap;html=1;" vertex="1" parent="1">
          <mxGeometry x="110" y="170" width="80" height="80" as="geometry" />
        </mxCell>
        <mxCell id="lNjub-nvCE7GVWdZc6g1-9" value="Lançamento" style="ellipse;whiteSpace=wrap;html=1;" vertex="1" parent="1">
          <mxGeometry x="490" y="100" width="120" height="60" as="geometry" />
        </mxCell>
        <mxCell id="lNjub-nvCE7GVWdZc6g1-10" value="nome" style="ellipse;whiteSpace=wrap;html=1;" vertex="1" parent="1">
          <mxGeometry x="490" y="190" width="120" height="60" as="geometry" />
        </mxCell>
        <mxCell id="lNjub-nvCE7GVWdZc6g1-18" style="edgeStyle=orthogonalEdgeStyle;rounded=0;orthogonalLoop=1;jettySize=auto;html=1;entryX=0.5;entryY=0;entryDx=0;entryDy=0;" edge="1" parent="1" source="lNjub-nvCE7GVWdZc6g1-12" target="lNjub-nvCE7GVWdZc6g1-13">
          <mxGeometry relative="1" as="geometry" />
        </mxCell>
        <mxCell id="lNjub-nvCE7GVWdZc6g1-12" value="possui" style="rhombus;whiteSpace=wrap;html=1;" vertex="1" parent="1">
          <mxGeometry x="340" y="280" width="80" height="80" as="geometry" />
        </mxCell>
        <mxCell id="lNjub-nvCE7GVWdZc6g1-19" style="edgeStyle=orthogonalEdgeStyle;rounded=0;orthogonalLoop=1;jettySize=auto;html=1;entryX=0;entryY=0.5;entryDx=0;entryDy=0;" edge="1" parent="1" source="lNjub-nvCE7GVWdZc6g1-13" target="lNjub-nvCE7GVWdZc6g1-14">
          <mxGeometry relative="1" as="geometry" />
        </mxCell>
        <mxCell id="lNjub-nvCE7GVWdZc6g1-13" value="genero" style="rounded=0;whiteSpace=wrap;html=1;" vertex="1" parent="1">
          <mxGeometry x="320" y="430" width="120" height="60" as="geometry" />
        </mxCell>
        <mxCell id="lNjub-nvCE7GVWdZc6g1-14" value="nome" style="ellipse;whiteSpace=wrap;html=1;" vertex="1" parent="1">
          <mxGeometry x="500" y="430" width="120" height="60" as="geometry" />
        </mxCell>
        <mxCell id="lNjub-nvCE7GVWdZc6g1-20" value="N" style="text;html=1;align=center;verticalAlign=middle;resizable=0;points=[];autosize=1;strokeColor=none;fillColor=none;" vertex="1" parent="1">
          <mxGeometry x="155" y="108" width="30" height="30" as="geometry" />
        </mxCell>
        <mxCell id="lNjub-nvCE7GVWdZc6g1-21" value="N" style="text;html=1;align=center;verticalAlign=middle;resizable=0;points=[];autosize=1;strokeColor=none;fillColor=none;" vertex="1" parent="1">
          <mxGeometry x="384" y="210" width="30" height="30" as="geometry" />
        </mxCell>
        <mxCell id="lNjub-nvCE7GVWdZc6g1-22" value="1" style="text;html=1;align=center;verticalAlign=middle;resizable=0;points=[];autosize=1;strokeColor=none;fillColor=none;" vertex="1" parent="1">
          <mxGeometry x="385" y="408" width="30" height="30" as="geometry" />
        </mxCell>
        <mxCell id="lNjub-nvCE7GVWdZc6g1-23" value="N" style="text;html=1;align=center;verticalAlign=middle;resizable=0;points=[];autosize=1;strokeColor=none;fillColor=none;" vertex="1" parent="1">
          <mxGeometry x="285" y="148" width="30" height="30" as="geometry" />
        </mxCell>
      </root>
    </mxGraphModel>
  </diagram>
  <diagram id="iiu7sfjKhsAXFOml-eyC" name="Página-2">
    <mxGraphModel dx="1050" dy="581" grid="1" gridSize="10" guides="1" tooltips="1" connect="1" arrows="1" fold="1" page="1" pageScale="1" pageWidth="827" pageHeight="1169" math="0" shadow="0">
      <root>
        <mxCell id="0" />
        <mxCell id="1" parent="0" />
        <mxCell id="RMaEJRh5fwyJORGSB9UP-27" style="edgeStyle=orthogonalEdgeStyle;rounded=0;orthogonalLoop=1;jettySize=auto;html=1;entryX=0;entryY=0.5;entryDx=0;entryDy=0;" edge="1" parent="1" source="RMaEJRh5fwyJORGSB9UP-4" target="RMaEJRh5fwyJORGSB9UP-25">
          <mxGeometry relative="1" as="geometry" />
        </mxCell>
        <mxCell id="RMaEJRh5fwyJORGSB9UP-28" style="edgeStyle=orthogonalEdgeStyle;rounded=0;orthogonalLoop=1;jettySize=auto;html=1;entryX=0;entryY=0.5;entryDx=0;entryDy=0;" edge="1" parent="1" source="RMaEJRh5fwyJORGSB9UP-4" target="RMaEJRh5fwyJORGSB9UP-26">
          <mxGeometry relative="1" as="geometry" />
        </mxCell>
        <mxCell id="RMaEJRh5fwyJORGSB9UP-4" value="Contato" style="rounded=0;whiteSpace=wrap;html=1;" vertex="1" parent="1">
          <mxGeometry x="320" y="150" width="120" height="60" as="geometry" />
        </mxCell>
        <mxCell id="RMaEJRh5fwyJORGSB9UP-9" style="edgeStyle=orthogonalEdgeStyle;rounded=0;orthogonalLoop=1;jettySize=auto;html=1;entryX=0;entryY=0.5;entryDx=0;entryDy=0;" edge="1" parent="1" source="RMaEJRh5fwyJORGSB9UP-10" target="RMaEJRh5fwyJORGSB9UP-11">
          <mxGeometry relative="1" as="geometry">
            <Array as="points">
              <mxPoint x="450" y="460" />
              <mxPoint x="450" y="460" />
            </Array>
          </mxGeometry>
        </mxCell>
        <mxCell id="RMaEJRh5fwyJORGSB9UP-10" value="CNH" style="rounded=0;whiteSpace=wrap;html=1;" vertex="1" parent="1">
          <mxGeometry x="320" y="430" width="120" height="60" as="geometry" />
        </mxCell>
        <mxCell id="RMaEJRh5fwyJORGSB9UP-11" value="Numero" style="ellipse;whiteSpace=wrap;html=1;" vertex="1" parent="1">
          <mxGeometry x="500" y="430" width="120" height="60" as="geometry" />
        </mxCell>
        <mxCell id="RMaEJRh5fwyJORGSB9UP-20" style="edgeStyle=orthogonalEdgeStyle;rounded=0;orthogonalLoop=1;jettySize=auto;html=1;entryX=0.5;entryY=0;entryDx=0;entryDy=0;" edge="1" parent="1" source="RMaEJRh5fwyJORGSB9UP-19" target="RMaEJRh5fwyJORGSB9UP-4">
          <mxGeometry relative="1" as="geometry" />
        </mxCell>
        <mxCell id="RMaEJRh5fwyJORGSB9UP-23" style="edgeStyle=orthogonalEdgeStyle;rounded=0;orthogonalLoop=1;jettySize=auto;html=1;entryX=0.5;entryY=0;entryDx=0;entryDy=0;" edge="1" parent="1" source="RMaEJRh5fwyJORGSB9UP-19" target="RMaEJRh5fwyJORGSB9UP-22">
          <mxGeometry relative="1" as="geometry" />
        </mxCell>
        <mxCell id="RMaEJRh5fwyJORGSB9UP-19" value="Pessoa" style="rounded=0;whiteSpace=wrap;html=1;" vertex="1" parent="1">
          <mxGeometry x="90" y="50" width="120" height="60" as="geometry" />
        </mxCell>
        <mxCell id="RMaEJRh5fwyJORGSB9UP-24" style="edgeStyle=orthogonalEdgeStyle;rounded=0;orthogonalLoop=1;jettySize=auto;html=1;entryX=0;entryY=0.5;entryDx=0;entryDy=0;" edge="1" parent="1" source="RMaEJRh5fwyJORGSB9UP-22" target="RMaEJRh5fwyJORGSB9UP-10">
          <mxGeometry relative="1" as="geometry" />
        </mxCell>
        <mxCell id="RMaEJRh5fwyJORGSB9UP-22" value="possui" style="rhombus;whiteSpace=wrap;html=1;" vertex="1" parent="1">
          <mxGeometry x="110" y="420" width="80" height="80" as="geometry" />
        </mxCell>
        <mxCell id="RMaEJRh5fwyJORGSB9UP-25" value="Telefone" style="ellipse;whiteSpace=wrap;html=1;" vertex="1" parent="1">
          <mxGeometry x="500" y="90" width="120" height="60" as="geometry" />
        </mxCell>
        <mxCell id="RMaEJRh5fwyJORGSB9UP-26" value="Email" style="ellipse;whiteSpace=wrap;html=1;" vertex="1" parent="1">
          <mxGeometry x="500" y="210" width="120" height="60" as="geometry" />
        </mxCell>
        <mxCell id="RMaEJRh5fwyJORGSB9UP-29" value="N" style="text;html=1;align=center;verticalAlign=middle;resizable=0;points=[];autosize=1;strokeColor=none;fillColor=none;" vertex="1" parent="1">
          <mxGeometry x="205" y="48" width="30" height="30" as="geometry" />
        </mxCell>
        <mxCell id="RMaEJRh5fwyJORGSB9UP-30" value="1" style="text;html=1;align=center;verticalAlign=middle;resizable=0;points=[];autosize=1;strokeColor=none;fillColor=none;" vertex="1" parent="1">
          <mxGeometry x="145" y="108" width="30" height="30" as="geometry" />
        </mxCell>
        <mxCell id="RMaEJRh5fwyJORGSB9UP-31" value="1" style="text;html=1;align=center;verticalAlign=middle;resizable=0;points=[];autosize=1;strokeColor=none;fillColor=none;" vertex="1" parent="1">
          <mxGeometry x="285" y="428" width="30" height="30" as="geometry" />
        </mxCell>
        <mxCell id="RMaEJRh5fwyJORGSB9UP-33" value="N" style="text;html=1;align=center;verticalAlign=middle;resizable=0;points=[];autosize=1;strokeColor=none;fillColor=none;" vertex="1" parent="1">
          <mxGeometry x="435" y="428" width="30" height="30" as="geometry" />
        </mxCell>
        <mxCell id="RMaEJRh5fwyJORGSB9UP-34" value="1" style="text;html=1;align=center;verticalAlign=middle;resizable=0;points=[];autosize=1;strokeColor=none;fillColor=none;" vertex="1" parent="1">
          <mxGeometry x="485" y="418" width="30" height="30" as="geometry" />
        </mxCell>
        <mxCell id="RMaEJRh5fwyJORGSB9UP-35" value="N" style="text;html=1;align=center;verticalAlign=middle;resizable=0;points=[];autosize=1;strokeColor=none;fillColor=none;" vertex="1" parent="1">
          <mxGeometry x="435" y="148" width="30" height="30" as="geometry" />
        </mxCell>
        <mxCell id="RMaEJRh5fwyJORGSB9UP-36" value="1" style="text;html=1;align=center;verticalAlign=middle;resizable=0;points=[];autosize=1;strokeColor=none;fillColor=none;" vertex="1" parent="1">
          <mxGeometry x="385" y="118" width="30" height="30" as="geometry" />
        </mxCell>
        <mxCell id="RMaEJRh5fwyJORGSB9UP-37" value="1" style="text;html=1;align=center;verticalAlign=middle;resizable=0;points=[];autosize=1;strokeColor=none;fillColor=none;" vertex="1" parent="1">
          <mxGeometry x="475" y="78" width="30" height="30" as="geometry" />
        </mxCell>
        <mxCell id="RMaEJRh5fwyJORGSB9UP-38" value="1" style="text;html=1;align=center;verticalAlign=middle;resizable=0;points=[];autosize=1;strokeColor=none;fillColor=none;" vertex="1" parent="1">
          <mxGeometry x="485" y="188" width="30" height="30" as="geometry" />
        </mxCell>
      </root>
    </mxGraphModel>
  </diagram>
  <diagram id="lN4cdJltz8-uxQaO_Oqf" name="Página-3">
    <mxGraphModel dx="1050" dy="581" grid="1" gridSize="10" guides="1" tooltips="1" connect="1" arrows="1" fold="1" page="1" pageScale="1" pageWidth="827" pageHeight="1169" math="0" shadow="0">
      <root>
        <mxCell id="0" />
        <mxCell id="1" parent="0" />
        <mxCell id="3rN0V206K1EY0qFHW4mq-1" style="edgeStyle=orthogonalEdgeStyle;rounded=0;orthogonalLoop=1;jettySize=auto;html=1;entryX=0;entryY=0.5;entryDx=0;entryDy=0;" edge="1" parent="1" source="3rN0V206K1EY0qFHW4mq-3" target="3rN0V206K1EY0qFHW4mq-12">
          <mxGeometry relative="1" as="geometry" />
        </mxCell>
        <mxCell id="3rN0V206K1EY0qFHW4mq-2" style="edgeStyle=orthogonalEdgeStyle;rounded=0;orthogonalLoop=1;jettySize=auto;html=1;entryX=0;entryY=0.5;entryDx=0;entryDy=0;" edge="1" parent="1" source="3rN0V206K1EY0qFHW4mq-3" target="3rN0V206K1EY0qFHW4mq-13">
          <mxGeometry relative="1" as="geometry" />
        </mxCell>
        <mxCell id="3rN0V206K1EY0qFHW4mq-18" style="edgeStyle=orthogonalEdgeStyle;rounded=0;orthogonalLoop=1;jettySize=auto;html=1;entryX=0.5;entryY=0;entryDx=0;entryDy=0;" edge="1" parent="1" source="3rN0V206K1EY0qFHW4mq-3" target="3rN0V206K1EY0qFHW4mq-11">
          <mxGeometry relative="1" as="geometry" />
        </mxCell>
        <mxCell id="3rN0V206K1EY0qFHW4mq-3" value="Veiculo" style="rounded=0;whiteSpace=wrap;html=1;" vertex="1" parent="1">
          <mxGeometry x="320" y="150" width="120" height="60" as="geometry" />
        </mxCell>
        <mxCell id="3rN0V206K1EY0qFHW4mq-15" style="edgeStyle=orthogonalEdgeStyle;rounded=0;orthogonalLoop=1;jettySize=auto;html=1;entryX=0;entryY=0.5;entryDx=0;entryDy=0;" edge="1" parent="1" source="3rN0V206K1EY0qFHW4mq-5" target="3rN0V206K1EY0qFHW4mq-14">
          <mxGeometry relative="1" as="geometry" />
        </mxCell>
        <mxCell id="3rN0V206K1EY0qFHW4mq-16" style="edgeStyle=orthogonalEdgeStyle;rounded=0;orthogonalLoop=1;jettySize=auto;html=1;entryX=0;entryY=0.5;entryDx=0;entryDy=0;" edge="1" parent="1" source="3rN0V206K1EY0qFHW4mq-5" target="3rN0V206K1EY0qFHW4mq-6">
          <mxGeometry relative="1" as="geometry" />
        </mxCell>
        <mxCell id="3rN0V206K1EY0qFHW4mq-5" value="Cliente" style="rounded=0;whiteSpace=wrap;html=1;" vertex="1" parent="1">
          <mxGeometry x="320" y="430" width="120" height="60" as="geometry" />
        </mxCell>
        <mxCell id="3rN0V206K1EY0qFHW4mq-6" value="cpf" style="ellipse;whiteSpace=wrap;html=1;" vertex="1" parent="1">
          <mxGeometry x="500" y="370" width="120" height="60" as="geometry" />
        </mxCell>
        <mxCell id="3rN0V206K1EY0qFHW4mq-21" style="edgeStyle=orthogonalEdgeStyle;rounded=0;orthogonalLoop=1;jettySize=auto;html=1;entryX=0;entryY=0.5;entryDx=0;entryDy=0;" edge="1" parent="1" source="3rN0V206K1EY0qFHW4mq-9" target="3rN0V206K1EY0qFHW4mq-20">
          <mxGeometry relative="1" as="geometry" />
        </mxCell>
        <mxCell id="3rN0V206K1EY0qFHW4mq-9" value="Empresa" style="rounded=0;whiteSpace=wrap;html=1;" vertex="1" parent="1">
          <mxGeometry x="80" y="60" width="120" height="60" as="geometry" />
        </mxCell>
        <mxCell id="3rN0V206K1EY0qFHW4mq-19" style="edgeStyle=orthogonalEdgeStyle;rounded=0;orthogonalLoop=1;jettySize=auto;html=1;entryX=0.5;entryY=0;entryDx=0;entryDy=0;" edge="1" parent="1" source="3rN0V206K1EY0qFHW4mq-11" target="3rN0V206K1EY0qFHW4mq-5">
          <mxGeometry relative="1" as="geometry" />
        </mxCell>
        <mxCell id="3rN0V206K1EY0qFHW4mq-11" value="aluga" style="rhombus;whiteSpace=wrap;html=1;" vertex="1" parent="1">
          <mxGeometry x="340" y="270" width="80" height="80" as="geometry" />
        </mxCell>
        <mxCell id="3rN0V206K1EY0qFHW4mq-12" value="Marca" style="ellipse;whiteSpace=wrap;html=1;" vertex="1" parent="1">
          <mxGeometry x="500" y="90" width="120" height="60" as="geometry" />
        </mxCell>
        <mxCell id="3rN0V206K1EY0qFHW4mq-13" value="Modelo" style="ellipse;whiteSpace=wrap;html=1;" vertex="1" parent="1">
          <mxGeometry x="500" y="210" width="120" height="60" as="geometry" />
        </mxCell>
        <mxCell id="3rN0V206K1EY0qFHW4mq-14" value="nome" style="ellipse;whiteSpace=wrap;html=1;" vertex="1" parent="1">
          <mxGeometry x="500" y="490" width="120" height="60" as="geometry" />
        </mxCell>
        <mxCell id="3rN0V206K1EY0qFHW4mq-17" value="N" style="text;html=1;align=center;verticalAlign=middle;resizable=0;points=[];autosize=1;strokeColor=none;fillColor=none;" vertex="1" parent="1">
          <mxGeometry x="210" y="50" width="30" height="30" as="geometry" />
        </mxCell>
        <mxCell id="3rN0V206K1EY0qFHW4mq-22" style="edgeStyle=orthogonalEdgeStyle;rounded=0;orthogonalLoop=1;jettySize=auto;html=1;entryX=0.5;entryY=0;entryDx=0;entryDy=0;" edge="1" parent="1" source="3rN0V206K1EY0qFHW4mq-20" target="3rN0V206K1EY0qFHW4mq-3">
          <mxGeometry relative="1" as="geometry" />
        </mxCell>
        <mxCell id="3rN0V206K1EY0qFHW4mq-20" value="Possui" style="rhombus;whiteSpace=wrap;html=1;" vertex="1" parent="1">
          <mxGeometry x="340" y="25" width="80" height="80" as="geometry" />
        </mxCell>
        <mxCell id="3rN0V206K1EY0qFHW4mq-23" value="1" style="text;html=1;align=center;verticalAlign=middle;resizable=0;points=[];autosize=1;strokeColor=none;fillColor=none;" vertex="1" parent="1">
          <mxGeometry x="350" y="120" width="30" height="30" as="geometry" />
        </mxCell>
        <mxCell id="3rN0V206K1EY0qFHW4mq-24" value="1" style="text;html=1;align=center;verticalAlign=middle;resizable=0;points=[];autosize=1;strokeColor=none;fillColor=none;" vertex="1" parent="1">
          <mxGeometry x="465" y="88" width="30" height="30" as="geometry" />
        </mxCell>
        <mxCell id="3rN0V206K1EY0qFHW4mq-25" value="1" style="text;html=1;align=center;verticalAlign=middle;resizable=0;points=[];autosize=1;strokeColor=none;fillColor=none;" vertex="1" parent="1">
          <mxGeometry x="465" y="240" width="30" height="30" as="geometry" />
        </mxCell>
        <mxCell id="3rN0V206K1EY0qFHW4mq-26" value="1" style="text;html=1;align=center;verticalAlign=middle;resizable=0;points=[];autosize=1;strokeColor=none;fillColor=none;" vertex="1" parent="1">
          <mxGeometry x="390" y="210" width="30" height="30" as="geometry" />
        </mxCell>
        <mxCell id="3rN0V206K1EY0qFHW4mq-27" value="N" style="text;html=1;align=center;verticalAlign=middle;resizable=0;points=[];autosize=1;strokeColor=none;fillColor=none;" vertex="1" parent="1">
          <mxGeometry x="330" y="400" width="30" height="30" as="geometry" />
        </mxCell>
        <mxCell id="3rN0V206K1EY0qFHW4mq-28" value="1" style="text;html=1;strokeColor=none;fillColor=none;align=center;verticalAlign=middle;whiteSpace=wrap;rounded=0;" vertex="1" parent="1">
          <mxGeometry x="430" y="440" width="60" height="30" as="geometry" />
        </mxCell>
        <mxCell id="3rN0V206K1EY0qFHW4mq-29" value="1" style="text;html=1;align=center;verticalAlign=middle;resizable=0;points=[];autosize=1;strokeColor=none;fillColor=none;" vertex="1" parent="1">
          <mxGeometry x="485" y="368" width="30" height="30" as="geometry" />
        </mxCell>
        <mxCell id="3rN0V206K1EY0qFHW4mq-30" value="N" style="text;html=1;align=center;verticalAlign=middle;resizable=0;points=[];autosize=1;strokeColor=none;fillColor=none;" vertex="1" parent="1">
          <mxGeometry x="470" y="490" width="30" height="30" as="geometry" />
        </mxCell>
      </root>
    </mxGraphModel>
  </diagram>
  <diagram id="ZFlmBUJ04-UBWXgbiAQB" name="Página-4">
    <mxGraphModel dx="1050" dy="581" grid="1" gridSize="10" guides="1" tooltips="1" connect="1" arrows="1" fold="1" page="1" pageScale="1" pageWidth="827" pageHeight="1169" math="0" shadow="0">
      <root>
        <mxCell id="0" />
        <mxCell id="1" parent="0" />
        <mxCell id="kD3s8nCL6MBVXQcKT-KT-26" style="edgeStyle=orthogonalEdgeStyle;rounded=0;orthogonalLoop=1;jettySize=auto;html=1;entryX=0.5;entryY=0;entryDx=0;entryDy=0;" edge="1" parent="1" source="kD3s8nCL6MBVXQcKT-KT-5" target="kD3s8nCL6MBVXQcKT-KT-25">
          <mxGeometry relative="1" as="geometry" />
        </mxCell>
        <mxCell id="kD3s8nCL6MBVXQcKT-KT-50" style="edgeStyle=orthogonalEdgeStyle;rounded=0;orthogonalLoop=1;jettySize=auto;html=1;entryX=0;entryY=0.5;entryDx=0;entryDy=0;" edge="1" parent="1" source="kD3s8nCL6MBVXQcKT-KT-5" target="kD3s8nCL6MBVXQcKT-KT-48">
          <mxGeometry relative="1" as="geometry" />
        </mxCell>
        <mxCell id="kD3s8nCL6MBVXQcKT-KT-51" style="edgeStyle=orthogonalEdgeStyle;rounded=0;orthogonalLoop=1;jettySize=auto;html=1;entryX=0;entryY=0.5;entryDx=0;entryDy=0;" edge="1" parent="1" source="kD3s8nCL6MBVXQcKT-KT-5" target="kD3s8nCL6MBVXQcKT-KT-49">
          <mxGeometry relative="1" as="geometry" />
        </mxCell>
        <mxCell id="kD3s8nCL6MBVXQcKT-KT-5" value="Veterinarios" style="rounded=0;whiteSpace=wrap;html=1;" vertex="1" parent="1">
          <mxGeometry x="320" y="430" width="120" height="60" as="geometry" />
        </mxCell>
        <mxCell id="kD3s8nCL6MBVXQcKT-KT-8" style="edgeStyle=orthogonalEdgeStyle;rounded=0;orthogonalLoop=1;jettySize=auto;html=1;entryX=0.5;entryY=0;entryDx=0;entryDy=0;" edge="1" parent="1" source="kD3s8nCL6MBVXQcKT-KT-9" target="kD3s8nCL6MBVXQcKT-KT-11">
          <mxGeometry relative="1" as="geometry" />
        </mxCell>
        <mxCell id="kD3s8nCL6MBVXQcKT-KT-15" style="edgeStyle=orthogonalEdgeStyle;rounded=0;orthogonalLoop=1;jettySize=auto;html=1;entryX=0;entryY=0.5;entryDx=0;entryDy=0;" edge="1" parent="1" source="kD3s8nCL6MBVXQcKT-KT-9" target="kD3s8nCL6MBVXQcKT-KT-14">
          <mxGeometry relative="1" as="geometry" />
        </mxCell>
        <mxCell id="kD3s8nCL6MBVXQcKT-KT-9" value="Clinica" style="rounded=0;whiteSpace=wrap;html=1;" vertex="1" parent="1">
          <mxGeometry x="90" y="50" width="120" height="60" as="geometry" />
        </mxCell>
        <mxCell id="kD3s8nCL6MBVXQcKT-KT-10" style="edgeStyle=orthogonalEdgeStyle;rounded=0;orthogonalLoop=1;jettySize=auto;html=1;entryX=0;entryY=0.5;entryDx=0;entryDy=0;" edge="1" parent="1" source="kD3s8nCL6MBVXQcKT-KT-11" target="kD3s8nCL6MBVXQcKT-KT-5">
          <mxGeometry relative="1" as="geometry" />
        </mxCell>
        <mxCell id="kD3s8nCL6MBVXQcKT-KT-11" value="Cadastro" style="rhombus;whiteSpace=wrap;html=1;" vertex="1" parent="1">
          <mxGeometry x="110" y="420" width="80" height="80" as="geometry" />
        </mxCell>
        <mxCell id="kD3s8nCL6MBVXQcKT-KT-17" style="edgeStyle=orthogonalEdgeStyle;rounded=0;orthogonalLoop=1;jettySize=auto;html=1;entryX=0;entryY=0.5;entryDx=0;entryDy=0;" edge="1" parent="1" source="kD3s8nCL6MBVXQcKT-KT-14" target="kD3s8nCL6MBVXQcKT-KT-16">
          <mxGeometry relative="1" as="geometry" />
        </mxCell>
        <mxCell id="kD3s8nCL6MBVXQcKT-KT-14" value="Possui" style="rhombus;whiteSpace=wrap;html=1;" vertex="1" parent="1">
          <mxGeometry x="290" y="110" width="80" height="80" as="geometry" />
        </mxCell>
        <mxCell id="kD3s8nCL6MBVXQcKT-KT-20" style="edgeStyle=orthogonalEdgeStyle;rounded=0;orthogonalLoop=1;jettySize=auto;html=1;entryX=0;entryY=0.5;entryDx=0;entryDy=0;" edge="1" parent="1" source="kD3s8nCL6MBVXQcKT-KT-16" target="kD3s8nCL6MBVXQcKT-KT-18">
          <mxGeometry relative="1" as="geometry" />
        </mxCell>
        <mxCell id="kD3s8nCL6MBVXQcKT-KT-21" style="edgeStyle=orthogonalEdgeStyle;rounded=0;orthogonalLoop=1;jettySize=auto;html=1;entryX=0;entryY=0.5;entryDx=0;entryDy=0;" edge="1" parent="1" source="kD3s8nCL6MBVXQcKT-KT-16" target="kD3s8nCL6MBVXQcKT-KT-19">
          <mxGeometry relative="1" as="geometry" />
        </mxCell>
        <mxCell id="kD3s8nCL6MBVXQcKT-KT-16" value="Endereço" style="rounded=0;whiteSpace=wrap;html=1;" vertex="1" parent="1">
          <mxGeometry x="450" y="120" width="120" height="60" as="geometry" />
        </mxCell>
        <mxCell id="kD3s8nCL6MBVXQcKT-KT-18" value="Cep" style="ellipse;whiteSpace=wrap;html=1;" vertex="1" parent="1">
          <mxGeometry x="650" y="60" width="120" height="60" as="geometry" />
        </mxCell>
        <mxCell id="kD3s8nCL6MBVXQcKT-KT-19" value="Rua" style="ellipse;whiteSpace=wrap;html=1;" vertex="1" parent="1">
          <mxGeometry x="650" y="180" width="120" height="60" as="geometry" />
        </mxCell>
        <mxCell id="kD3s8nCL6MBVXQcKT-KT-31" style="edgeStyle=orthogonalEdgeStyle;rounded=0;orthogonalLoop=1;jettySize=auto;html=1;entryX=0;entryY=0.5;entryDx=0;entryDy=0;" edge="1" parent="1" source="kD3s8nCL6MBVXQcKT-KT-25" target="kD3s8nCL6MBVXQcKT-KT-27">
          <mxGeometry relative="1" as="geometry" />
        </mxCell>
        <mxCell id="kD3s8nCL6MBVXQcKT-KT-32" style="edgeStyle=orthogonalEdgeStyle;rounded=0;orthogonalLoop=1;jettySize=auto;html=1;entryX=0;entryY=0.5;entryDx=0;entryDy=0;" edge="1" parent="1" source="kD3s8nCL6MBVXQcKT-KT-25" target="kD3s8nCL6MBVXQcKT-KT-28">
          <mxGeometry relative="1" as="geometry" />
        </mxCell>
        <mxCell id="kD3s8nCL6MBVXQcKT-KT-33" style="edgeStyle=orthogonalEdgeStyle;rounded=0;orthogonalLoop=1;jettySize=auto;html=1;entryX=0;entryY=0.5;entryDx=0;entryDy=0;" edge="1" parent="1" source="kD3s8nCL6MBVXQcKT-KT-25" target="kD3s8nCL6MBVXQcKT-KT-29">
          <mxGeometry relative="1" as="geometry" />
        </mxCell>
        <mxCell id="kD3s8nCL6MBVXQcKT-KT-25" value="Pets" style="rounded=0;whiteSpace=wrap;html=1;" vertex="1" parent="1">
          <mxGeometry x="320" y="620" width="120" height="60" as="geometry" />
        </mxCell>
        <mxCell id="kD3s8nCL6MBVXQcKT-KT-27" value="Raça" style="ellipse;whiteSpace=wrap;html=1;" vertex="1" parent="1">
          <mxGeometry x="520" y="620" width="120" height="60" as="geometry" />
        </mxCell>
        <mxCell id="kD3s8nCL6MBVXQcKT-KT-28" value="Nome" style="ellipse;whiteSpace=wrap;html=1;" vertex="1" parent="1">
          <mxGeometry x="520" y="550" width="120" height="60" as="geometry" />
        </mxCell>
        <mxCell id="kD3s8nCL6MBVXQcKT-KT-29" value="Dono" style="ellipse;whiteSpace=wrap;html=1;" vertex="1" parent="1">
          <mxGeometry x="520" y="690" width="120" height="60" as="geometry" />
        </mxCell>
        <mxCell id="kD3s8nCL6MBVXQcKT-KT-34" value="1" style="text;html=1;align=center;verticalAlign=middle;resizable=0;points=[];autosize=1;strokeColor=none;fillColor=none;" vertex="1" parent="1">
          <mxGeometry x="205" y="48" width="30" height="30" as="geometry" />
        </mxCell>
        <mxCell id="kD3s8nCL6MBVXQcKT-KT-35" value="1" style="text;html=1;align=center;verticalAlign=middle;resizable=0;points=[];autosize=1;strokeColor=none;fillColor=none;" vertex="1" parent="1">
          <mxGeometry x="415" y="108" width="30" height="30" as="geometry" />
        </mxCell>
        <mxCell id="kD3s8nCL6MBVXQcKT-KT-36" value="1" style="text;html=1;align=center;verticalAlign=middle;resizable=0;points=[];autosize=1;strokeColor=none;fillColor=none;" vertex="1" parent="1">
          <mxGeometry x="565" y="108" width="30" height="30" as="geometry" />
        </mxCell>
        <mxCell id="kD3s8nCL6MBVXQcKT-KT-37" value="1" style="text;html=1;align=center;verticalAlign=middle;resizable=0;points=[];autosize=1;strokeColor=none;fillColor=none;" vertex="1" parent="1">
          <mxGeometry x="565" y="158" width="30" height="30" as="geometry" />
        </mxCell>
        <mxCell id="kD3s8nCL6MBVXQcKT-KT-38" value="N" style="text;html=1;align=center;verticalAlign=middle;resizable=0;points=[];autosize=1;strokeColor=none;fillColor=none;" vertex="1" parent="1">
          <mxGeometry x="635" y="168" width="30" height="30" as="geometry" />
        </mxCell>
        <mxCell id="kD3s8nCL6MBVXQcKT-KT-39" value="1" style="text;html=1;align=center;verticalAlign=middle;resizable=0;points=[];autosize=1;strokeColor=none;fillColor=none;" vertex="1" parent="1">
          <mxGeometry x="625" y="98" width="30" height="30" as="geometry" />
        </mxCell>
        <mxCell id="kD3s8nCL6MBVXQcKT-KT-40" value="N" style="text;html=1;align=center;verticalAlign=middle;resizable=0;points=[];autosize=1;strokeColor=none;fillColor=none;" vertex="1" parent="1">
          <mxGeometry x="155" y="118" width="30" height="30" as="geometry" />
        </mxCell>
        <mxCell id="kD3s8nCL6MBVXQcKT-KT-41" value="N" style="text;html=1;align=center;verticalAlign=middle;resizable=0;points=[];autosize=1;strokeColor=none;fillColor=none;" vertex="1" parent="1">
          <mxGeometry x="285" y="418" width="30" height="30" as="geometry" />
        </mxCell>
        <mxCell id="kD3s8nCL6MBVXQcKT-KT-42" value="N" style="text;html=1;align=center;verticalAlign=middle;resizable=0;points=[];autosize=1;strokeColor=none;fillColor=none;" vertex="1" parent="1">
          <mxGeometry x="375" y="488" width="30" height="30" as="geometry" />
        </mxCell>
        <mxCell id="kD3s8nCL6MBVXQcKT-KT-43" value="1" style="text;html=1;align=center;verticalAlign=middle;resizable=0;points=[];autosize=1;strokeColor=none;fillColor=none;" vertex="1" parent="1">
          <mxGeometry x="385" y="588" width="30" height="30" as="geometry" />
        </mxCell>
        <mxCell id="kD3s8nCL6MBVXQcKT-KT-44" value="1" style="text;html=1;align=center;verticalAlign=middle;resizable=0;points=[];autosize=1;strokeColor=none;fillColor=none;" vertex="1" parent="1">
          <mxGeometry x="440" y="620" width="30" height="30" as="geometry" />
        </mxCell>
        <mxCell id="kD3s8nCL6MBVXQcKT-KT-45" value="N" style="text;html=1;align=center;verticalAlign=middle;resizable=0;points=[];autosize=1;strokeColor=none;fillColor=none;" vertex="1" parent="1">
          <mxGeometry x="505" y="728" width="30" height="30" as="geometry" />
        </mxCell>
        <mxCell id="kD3s8nCL6MBVXQcKT-KT-46" value="N" style="text;html=1;align=center;verticalAlign=middle;resizable=0;points=[];autosize=1;strokeColor=none;fillColor=none;" vertex="1" parent="1">
          <mxGeometry x="505" y="648" width="30" height="30" as="geometry" />
        </mxCell>
        <mxCell id="kD3s8nCL6MBVXQcKT-KT-47" value="N" style="text;html=1;align=center;verticalAlign=middle;resizable=0;points=[];autosize=1;strokeColor=none;fillColor=none;" vertex="1" parent="1">
          <mxGeometry x="505" y="588" width="30" height="30" as="geometry" />
        </mxCell>
        <mxCell id="kD3s8nCL6MBVXQcKT-KT-48" value="Nome" style="ellipse;whiteSpace=wrap;html=1;" vertex="1" parent="1">
          <mxGeometry x="530" y="370" width="120" height="60" as="geometry" />
        </mxCell>
        <mxCell id="kD3s8nCL6MBVXQcKT-KT-49" value="Crmv" style="ellipse;whiteSpace=wrap;html=1;" vertex="1" parent="1">
          <mxGeometry x="530" y="448" width="120" height="60" as="geometry" />
        </mxCell>
        <mxCell id="kD3s8nCL6MBVXQcKT-KT-52" value="1" style="text;html=1;align=center;verticalAlign=middle;resizable=0;points=[];autosize=1;strokeColor=none;fillColor=none;" vertex="1" parent="1">
          <mxGeometry x="435" y="458" width="30" height="30" as="geometry" />
        </mxCell>
        <mxCell id="kD3s8nCL6MBVXQcKT-KT-53" value="1" style="text;html=1;align=center;verticalAlign=middle;resizable=0;points=[];autosize=1;strokeColor=none;fillColor=none;" vertex="1" parent="1">
          <mxGeometry x="515" y="478" width="30" height="30" as="geometry" />
        </mxCell>
        <mxCell id="kD3s8nCL6MBVXQcKT-KT-54" value="N" style="text;html=1;align=center;verticalAlign=middle;resizable=0;points=[];autosize=1;strokeColor=none;fillColor=none;" vertex="1" parent="1">
          <mxGeometry x="505" y="398" width="30" height="30" as="geometry" />
        </mxCell>
      </root>
    </mxGraphModel>
  </diagram>
</mxfile>
